<svg xmlns="http://www.w3.org/2000/svg" xmlns:xlink="http://www.w3.org/1999/xlink" width="120.971" height="110.408" viewBox="0 0 120.971 110.408">
  <defs>
    <radialGradient id="radial-gradient" cx="0.5" cy="0.5" r="0.5" gradientUnits="objectBoundingBox">
      <stop offset="0" stop-color="#add599"/>
      <stop offset="1" stop-color="#97ba85"/>
    </radialGradient>
  </defs>
  <g id="Gruppe_128" data-name="Gruppe 128" transform="translate(-126.796 -198.128)">
    <g id="Moodster" transform="translate(128 198.854)">
      <path id="Pfad_4" data-name="Pfad 4" d="M90.759,484.969c-6.288,2.154-9.951-6.381-10.242-6.894-10.664-6.226-5.543-18.454-5.543-18.454a6.8,6.8,0,0,0-2.422-3.373c3.127-.309,6.646-4.763,6.646-4.763s-1.1-1.012-4.224,0c2.462-1.21,5.543-6.5,5.543-6.5s-.4-1.077-4.287-1.63c11.078-5.739,14.529-10,14.529-10L102.3,478.074l-1.849-79.55" transform="translate(-72.552 -388.686)" fill="#99bd87" stroke="#000" stroke-width="1"/>
      <path id="Pfad_5" data-name="Pfad 5" d="M250,471.806s11.042,1.413,11.8-5.61c10.04-5.539,6.695-13.7,6.695-13.7s1.294-.485,4.535,0a14.312,14.312,0,0,1-5.937-3.758s-.981-1.521,3.71-.818c-3.239-1.2-9-9.861-9-9.861s1.045-1.007,5.292,0a36.622,36.622,0,0,1-8.314-6.873s.312-2.025,5.368-2.4c-4.888-1.184-15.574-12.272-15.574-12.272l-2.391,40.859Z" transform="translate(-153.398 -380.849)" fill="#99bd87" stroke="#000" stroke-width="1"/>
      <path id="Pfad_1" data-name="Pfad 1" d="M108.194,359.526c-2.43.515-10-6.787-10.326-9.732,33.859,11.486,51.513-16.152,82.591,25.9a22.364,22.364,0,0,0-5.626-1.364s6.89,9.344,8.152,11.757c-.206-.048-6-2.388-4.275-1.49-.037,3.485,4.275,8.073,4.275,8.073s-3.65-2.1-4.275-1.145c-.814,4.028,6.67,14.633,6.67,14.633s-4.529-2.09-4.92-1.835c-1.588,3.591,5.8,13.817,5.8,13.817s-5.288-.356-5.8,0c.127,2.033,5.8,7.818,5.8,7.818s-4.27.637-4.9,0c-.909,3.057,4.024,10.035,4.024,10.035s-5.029-3.02-4.92-2.674c-.57,3.355,5.8,15.649,5.8,15.649s-3.633-.085-4.9,0c-1.41.866,1.629,3.453,1.629,3.453s-12.165,10.214-35.883,3.913c2.928-2.915,2.4-4.752,2.737-7.366.9-.439,2.533-1.75.493-3.335a28.128,28.128,0,0,1-15.568,0s-2.166,1.692,0,3.335c-1.283,3.657,2.261,7.378,2.26,7.366-27.057,5.912-37.373,0-37.373,0s4.562-4.059,2.19-5.849c-.864,2.705-7,4.156-7,4.156s6.311-7.356,7-9.008c-5.3,4.525-5.515,3.335-5.515,3.335s5.607-11.884,4.208-15.649c.1,1.757-4.208,2.674-4.208,2.674A35.352,35.352,0,0,0,98.8,425.962a33.113,33.113,0,0,1-6.256,0s5.681-7.278,5.326-11.44a20.552,20.552,0,0,1-5.326,2.034,81.91,81.91,0,0,0,3.784-12.229c-1.336,1.261-5.612,1.011-5.612,1.011s5.4-7.653,4.123-10.933c-.853,2.125-5.793,1.7-5.793,1.7s5.3-5.77,4.735-10.012c-1.189.712-4.735-2.509-4.735-2.509s6.577-4.648,7.282-7.883c-1.957,1.535-3.784-1.364-3.784-1.364s7.043-2.341,7.992-5.514c-1.332-.488-2.666-4.049-2.666-4.049S108.194,363.27,108.194,359.526Z" transform="translate(-80.232 -349.794)" stroke="#000" stroke-width="1" fill="url(#radial-gradient)"/>
      <path id="Pfad_2" data-name="Pfad 2" d="M115.516,544.9c9.259-16.107,15.653.513,15.653.513s9.732-16.5,15.612-1.347C146.785,544.5,127.627,548.014,115.516,544.9Z" transform="translate(-92.557 -437.239)" fill="#feffe6" stroke="#000" stroke-width="1"/>
      <path id="Pfad_3" data-name="Pfad 3" d="M201.057,542.888c9.854-17.218,17.79,0,17.79,0s3.845-16.919,13.174-3.1C232.187,539.981,220.976,547.08,201.057,542.888Z" transform="translate(-132.113 -435.924)" fill="#feffe6" stroke="#000" stroke-width="1"/>
      <path id="Pfad_6" data-name="Pfad 6" d="M125.214,422.673s4.7-6.991,11.309-6.3a8.8,8.8,0,0,1,3.561,1.341" transform="translate(-97.073 -380.746)" fill="none" stroke="#000" stroke-width="1"/>
      <path id="Pfad_7" data-name="Pfad 7" d="M183.819,412.688s8.131-13.259,22.254-4.233" transform="translate(-124.361 -373.495)" fill="none" stroke="#000" stroke-width="1"/>
      <path id="Pfad_8" data-name="Pfad 8" d="M139.127,475.813s31.472,5.555,51.562-10.156" transform="translate(-103.551 -403.723)" fill="none" stroke="#000" stroke-width="1"/>
      <path id="Pfad_9" data-name="Pfad 9" d="M133.218,478.4s-6.706,10.168-11.057,12.134" transform="translate(-95.651 -409.655)" fill="none" stroke="#000" stroke-width="1"/>
      <path id="Pfad_10" data-name="Pfad 10" d="M153.457,485.63a141.936,141.936,0,0,1-15-.93c.049-.069-1.154,6.944,1.958,8.948a9.426,9.426,0,0,0,10.215,0C153.886,491.644,153.457,485.63,153.457,485.63Z" transform="translate(-103.149 -412.586)" fill="#feffe6" stroke="#000" stroke-width="1"/>
      <path id="Pfad_11" data-name="Pfad 11" d="M200.813,476.6s9.481-2.866,15.45-6.621c.007.022,1.785,9.176-.994,12.447s-7.761,3.344-10.864,1.833S200.813,476.6,200.813,476.6Z" transform="translate(-132.273 -405.736)" fill="#feffe6" stroke="#000" stroke-width="1"/>
      <path id="Pfad_12" data-name="Pfad 12" d="M86.684,501.1s-.945,8.656,2.714,12.165" transform="translate(-79.081 -420.22)" fill="none" stroke="#000" stroke-width="1"/>
      <path id="Pfad_13" data-name="Pfad 13" d="M270.617,490.962s4.811,11.694-3.151,14.831" transform="translate(-163.309 -415.501)" fill="none" stroke="#000" stroke-width="1"/>
      <path id="Pfad_14" data-name="Pfad 14" d="M176.093,504.253s6.288,1.536,8.584,0" transform="translate(-120.763 -421.687)" fill="none" stroke="#000" stroke-linecap="round" stroke-width="1"/>
      <path id="Pfad_15" data-name="Pfad 15" d="M134.154,449.931s5.716-.793,7.394-2.272" transform="translate(-101.236 -395.345)" fill="none" stroke="#000" stroke-width="1"/>
      <path id="Pfad_16" data-name="Pfad 16" d="M200.433,441.949s7.762,2.464,10.733,1.454" transform="translate(-132.097 -392.688)" fill="none" stroke="#000" stroke-width="1"/>
      <g id="Ellipse_8" data-name="Ellipse 8" transform="translate(32.012 39)" fill="#fff" stroke="#000" stroke-width="1">
        <ellipse cx="7.164" cy="7.244" rx="7.164" ry="7.244" stroke="none"/>
        <ellipse cx="7.164" cy="7.244" rx="6.664" ry="6.744" fill="none"/>
      </g>
      <g id="Ellipse_5" data-name="Ellipse 5" transform="translate(64.44 35.188)" fill="#fff" stroke="#000" stroke-width="1">
        <ellipse cx="7.164" cy="7.244" rx="7.164" ry="7.244" stroke="none"/>
        <ellipse cx="7.164" cy="7.244" rx="6.664" ry="6.744" fill="none"/>
      </g>
      <g id="Ellipse_7" data-name="Ellipse 7" transform="translate(68.965 40.525)" stroke="#000" stroke-width="1">
        <ellipse cx="2.64" cy="2.669" rx="2.64" ry="2.669" stroke="none"/>
        <ellipse cx="2.64" cy="2.669" rx="2.14" ry="2.169" fill="none"/>
      </g>
      <g id="Ellipse_9" data-name="Ellipse 9" transform="translate(36.537 44.338)" stroke="#000" stroke-width="1">
        <ellipse cx="2.64" cy="2.669" rx="2.64" ry="2.669" stroke="none"/>
        <ellipse cx="2.64" cy="2.669" rx="2.14" ry="2.169" fill="none"/>
      </g>
      <path id="Pfad_146" data-name="Pfad 146" d="M125.214,422.673s4.7-6.991,11.309-6.3a8.8,8.8,0,0,1,3.561,1.341" transform="translate(-97.073 -380.746)" fill="none" stroke="#000" stroke-width="1"/>
    </g>
  </g>
</svg>
