<svg xmlns="http://www.w3.org/2000/svg" width="46.183" height="45" viewBox="0 0 46.183 45">
  <g id="Gruppe_42" data-name="Gruppe 42" transform="translate(-1682 -824)">
    <g id="analysis" transform="translate(1682 824)">
      <path id="Pfad_53" data-name="Pfad 53" d="M116,87.571a2.258,2.258,0,1,0-1.8-.9l-3.705,5.178a2.249,2.249,0,0,0-2.237.493l-2.47-1.4a2.255,2.255,0,1,0-4.409,0l-2.47,1.4a2.252,2.252,0,1,0,.669,1.176l2.47-1.4a2.249,2.249,0,0,0,3.07,0l2.47,1.4a2.255,2.255,0,1,0,4.006-.88l3.705-5.178A2.248,2.248,0,0,0,116,87.571Zm0-3.157a.9.9,0,1,1-.9.9A.9.9,0,0,1,116,84.414ZM97.373,94.893a.9.9,0,1,1,.9-.9A.9.9,0,0,1,97.373,94.893Zm6.209-3.526a.9.9,0,1,1,.9-.9A.9.9,0,0,1,103.582,91.367Zm6.209,3.526a.9.9,0,1,1,.9-.9A.9.9,0,0,1,109.791,94.893Z" transform="translate(-86.538 -76.16)" fill="#165b6e"/>
      <path id="Pfad_54" data-name="Pfad 54" d="M37.776,70.5H1.914a.561.561,0,0,1-.561-.561V42.03a.561.561,0,0,1,.561-.561H5.1a.677.677,0,0,0,0-1.353H1.914A1.916,1.916,0,0,0,0,42.03V69.94a1.916,1.916,0,0,0,1.914,1.914H6.578v1.489A1.54,1.54,0,0,0,8.116,74.88h6.772L11.7,81.1a.676.676,0,1,0,1.2.617l3.5-6.84h7.48l3.5,6.84a.676.676,0,1,0,1.2-.617L25.408,74.88H32.18a1.54,1.54,0,0,0,1.538-1.538V71.853h4.058a.677.677,0,0,0,0-1.353Zm-5.411,2.842a.185.185,0,0,1-.185.185H8.116a.185.185,0,0,1-.185-.185V71.853H32.365Z" transform="translate(0 -37.089)" fill="#165b6e"/>
      <path id="Pfad_55" data-name="Pfad 55" d="M79.748,10.938h30.574a.561.561,0,0,1,.561.561v6.432a.676.676,0,1,0,1.353,0V11.5a1.916,1.916,0,0,0-1.914-1.914H95.842V8.255a1.7,1.7,0,0,0-1.7-1.7H90.029a1.7,1.7,0,0,0-1.7,1.7v1.33H79.748a.677.677,0,0,0,0,1.353Zm9.938-2.683a.345.345,0,0,1,.344-.344h4.115a.345.345,0,0,1,.344.344v1.33h-4.8V8.255Z" transform="translate(-71.939 -6.558)" fill="#165b6e"/>
      <path id="Pfad_56" data-name="Pfad 56" d="M98.079,267.576a.676.676,0,0,0-.677.677v5.978a.676.676,0,0,0,.677.677h2.745a.676.676,0,0,0,.677-.677v-5.978a.676.676,0,0,0-.677-.677Zm2.068,5.978H98.755v-4.625h1.392Z" transform="translate(-88.616 -244.032)" fill="#165b6e"/>
      <path id="Pfad_57" data-name="Pfad 57" d="M166.913,229.248a.676.676,0,0,0-.676.676v9.435a.676.676,0,0,0,.676.676h2.745a.676.676,0,0,0,.677-.676v-9.435a.676.676,0,0,0-.677-.676Zm2.068,9.435H167.59V230.6h1.392Z" transform="translate(-151.242 -209.161)" fill="#165b6e"/>
      <path id="Pfad_58" data-name="Pfad 58" d="M235.749,267.576a.676.676,0,0,0-.676.677v5.978a.676.676,0,0,0,.676.677h2.745a.676.676,0,0,0,.676-.677v-5.978a.676.676,0,0,0-.676-.677Zm2.068,5.978h-1.392v-4.625h1.392Z" transform="translate(-213.869 -244.032)" fill="#165b6e"/>
      <path id="Pfad_59" data-name="Pfad 59" d="M304.586,311.832a.676.676,0,0,0-.677.677v1.986a.676.676,0,0,0,.677.677h2.745a.676.676,0,1,0,0-1.353h-2.068v-1.309A.676.676,0,0,0,304.586,311.832Z" transform="translate(-276.496 -284.296)" fill="#165b6e"/>
      <path id="Pfad_60" data-name="Pfad 60" d="M314.713,166.081l-3.881-6.722a8.847,8.847,0,1,0-8.748,2.5,8.89,8.89,0,0,0,2.3.305,8.731,8.731,0,0,0,1.991-.23l3.88,6.723a2.572,2.572,0,1,0,4.454-2.572Zm-12.279-5.533a7.489,7.489,0,1,1,5.683-.748A7.44,7.44,0,0,1,302.435,160.549Zm10.661,7.874a1.22,1.22,0,0,1-1.665-.446l-3.733-6.468a8.88,8.88,0,0,0,2.109-1.219l3.734,6.468a1.217,1.217,0,0,1-.446,1.665Z" transform="translate(-268.875 -132.034)" fill="#165b6e"/>
      <path id="Pfad_61" data-name="Pfad 61" d="M334.86,179.573a6.4,6.4,0,0,0-.32-4.638.676.676,0,1,0-1.224.577,5.067,5.067,0,1,1-1.528-1.888.676.676,0,1,0,.816-1.079,6.424,6.424,0,1,0,2.255,7.028Z" transform="translate(-293.228 -156.387)" fill="#165b6e"/>
    </g>
  </g>
</svg>
