<svg id="Capa_1" enable-background="new 0 0 512 512" height="512" fill="#165b6e" viewBox="0 0 512 512" width="512" xmlns="http://www.w3.org/2000/svg"><g id="XMLID_1027_"><g id="XMLID_1202_"><path id="XMLID_1203_" d="m466.135 109.746c-3.159-4.531-9.393-5.641-13.923-2.483-4.53 3.159-5.642 9.392-2.483 13.922 27.654 39.661 42.271 86.279 42.271 134.815 0 130.131-105.869 236-236 236-43.558 0-86.119-11.967-123.081-34.606-3.429-2.101-7.785-1.942-11.054.403l-34.441 24.718v-57.331c0-2.559-.981-5.021-2.742-6.879-41.711-44.012-64.682-101.653-64.682-162.305 0-130.131 105.869-236 236-236 47.564 0 93.406 14.083 132.57 40.725 4.565 3.106 10.785 1.924 13.894-2.644 3.106-4.567 1.923-10.787-2.644-13.893-42.496-28.908-92.228-44.188-143.82-44.188-68.38 0-132.667 26.628-181.019 74.98-48.353 48.352-74.981 112.64-74.981 181.02 0 64.452 23.913 125.769 67.424 173.124v72.876c0 3.75 2.098 7.185 5.434 8.897 1.44.739 3.005 1.103 4.565 1.103 2.055 0 4.1-.633 5.832-1.875l44.956-32.264c38.744 22.354 82.78 34.139 127.789 34.139 68.38 0 132.667-26.628 181.02-74.98 48.351-48.352 74.98-112.64 74.98-181.02 0-52.648-15.86-103.221-45.865-146.254z"/><path id="XMLID_1312_" d="m428.94 91.05c2.63 0 5.21-1.07 7.07-2.93s2.93-4.43 2.93-7.07c0-2.63-1.069-5.21-2.93-7.07-1.86-1.86-4.44-2.93-7.07-2.93s-5.21 1.07-7.069 2.93c-1.86 1.86-2.931 4.44-2.931 7.07 0 2.64 1.07 5.21 2.931 7.07 1.858 1.86 4.439 2.93 7.069 2.93z"/><path id="XMLID_1320_" d="m301.423 176c-5.523 0-10 4.477-10 10v11.848c-10.585-11.297-24.749-17.901-40.965-17.901-16.931 0-33.578 7.681-45.673 21.074-12.542 13.887-19.448 32.915-19.448 53.579 0 20.745 6.549 40.144 18.442 54.624 11.916 14.508 28.419 22.83 45.279 22.83 17.515 0 33.127-8.594 44.344-22.662 2.082 6.779 5.749 13.018 10.741 18.034 7.239 7.275 16.53 11.282 26.16 11.282 29.12 0 47.598-20.374 55.18-39.439 12.242-30.779 14.46-56.648 7.192-83.879-.028-.104-.058-.207-.089-.311-11.054-36.626-35.786-66.617-69.64-84.447-33.847-17.827-72.582-21.249-109.066-9.634-34.564 11.002-63.323 34.729-80.978 66.806-17.66 32.087-22.306 69.074-13.082 104.148 7.992 30.389 25.247 56.603 49.898 75.809 23.74 18.496 53.307 29.138 83.255 29.966.094.003.188.004.281.004 5.395 0 9.841-4.297 9.991-9.724.152-5.521-4.199-10.12-9.72-10.272-53.655-1.484-100.684-38.851-114.364-90.869-16.478-62.658 19.006-127.144 80.784-146.81 31.34-9.976 64.609-7.039 93.68 8.272 29.029 15.288 50.249 40.987 59.767 72.374 6.119 23.055 4.174 44.354-6.494 71.176-2.503 6.294-12.54 26.831-36.596 26.831-4.27 0-8.525-1.914-11.983-5.389-4.415-4.437-6.929-10.684-6.896-17.188v-110.132c0-5.523-4.478-10-10-10zm-23.379 120.497c-7.88 10.031-18.174 15.556-28.986 15.556-24.108 0-43.721-25.773-43.721-57.453 0-34.21 22.941-54.652 45.121-54.652 24.093 0 40.919 22.308 40.919 54.249 0 16.333-4.735 31.355-13.333 42.3z"/></g></g></svg>