<svg id="crying" xmlns="http://www.w3.org/2000/svg" width="45.655" height="45.655" viewBox="0 0 45.655 45.655">
  <g id="Gruppe_112" data-name="Gruppe 112">
    <g id="Gruppe_111" data-name="Gruppe 111">
      <path id="Pfad_130" data-name="Pfad 130" d="M22.827,0A22.827,22.827,0,1,1,0,22.827,22.854,22.854,0,0,1,22.827,0Zm0,43.67A20.842,20.842,0,1,0,1.985,22.827,20.865,20.865,0,0,0,22.827,43.67Z" fill="#f3cf78"/>
      <path id="Pfad_131" data-name="Pfad 131" d="M96,130.977a2.977,2.977,0,1,1,2.977,2.977A2.981,2.981,0,0,1,96,130.977Zm3.97,0a.992.992,0,1,0-.993.992A.994.994,0,0,0,99.97,130.977Z" transform="translate(-68.21 -112.12)" fill="#f3cf78"/>
      <path id="Pfad_132" data-name="Pfad 132" d="M226.978,128a2.97,2.97,0,0,1,.992,5.772v3.16a.993.993,0,0,1-1.985,0v-3.16a2.97,2.97,0,0,1,.993-5.772Zm0,3.97a.992.992,0,1,0-.993-.992A.993.993,0,0,0,226.978,131.97Z" transform="translate(-212.09 -112.12)" fill="#f3cf78"/>
      <path id="Pfad_133" data-name="Pfad 133" d="M113.927,224a12.984,12.984,0,0,1,9.672,4.3.992.992,0,0,1-1.479,1.324,11.042,11.042,0,0,0-16.386,0,.992.992,0,1,1-1.479-1.324A12.986,12.986,0,0,1,113.927,224Z" transform="translate(-91.1 -196.21)" fill="#f3cf78"/>
      <path id="Pfad_134" data-name="Pfad 134" d="M224.546,66.083l3.97-1.985a.993.993,0,0,1,.888,1.777l-3.97,1.985a.993.993,0,0,1-.888-1.777Z" transform="translate(-212.089 -56.054)" fill="#f3cf78"/>
      <path id="Pfad_135" data-name="Pfad 135" d="M100.955,67.968a1,1,0,0,1-.443-.1l-3.97-1.985A.993.993,0,1,1,97.43,64.1l3.97,1.985a.992.992,0,0,1-.446,1.88Z" transform="translate(-68.203 -56.058)" fill="#f3cf78"/>
    </g>
  </g>
</svg>
