<svg id="Capa_1" enable-background="new 0 0 512 512" height="512" fill="#165b6e" viewBox="0 0 512 512" width="512" xmlns="http://www.w3.org/2000/svg"><g><g><path d="m164.075 115.006h137.382c4.142 0 7.5-3.358 7.5-7.5s-3.358-7.5-7.5-7.5h-137.382c-4.142 0-7.5 3.358-7.5 7.5s3.358 7.5 7.5 7.5z"/><path d="m164.075 161.474h137.382c4.142 0 7.5-3.358 7.5-7.5s-3.358-7.5-7.5-7.5h-137.382c-4.142 0-7.5 3.358-7.5 7.5s3.358 7.5 7.5 7.5z"/><path d="m283.274 402.045h-101.016c-4.142 0-7.5 3.358-7.5 7.5s3.358 7.5 7.5 7.5h101.016c4.142 0 7.5-3.358 7.5-7.5s-3.357-7.5-7.5-7.5z"/><path d="m283.274 434.37h-101.016c-4.142 0-7.5 3.358-7.5 7.5s3.358 7.5 7.5 7.5h101.016c4.142 0 7.5-3.358 7.5-7.5s-3.357-7.5-7.5-7.5z"/><path d="m360.047 0h-321.232c-9.706 0-17.602 7.896-17.602 17.602v119.542c0 4.142 3.358 7.5 7.5 7.5s7.5-3.358 7.5-7.5v-119.542c0-1.435 1.167-2.602 2.602-2.602h32.907v482h-32.907c-1.435 0-2.602-1.167-2.602-2.602v-322.233c0-4.142-3.358-7.5-7.5-7.5s-7.5 3.358-7.5 7.5v322.233c0 9.706 7.896 17.602 17.602 17.602h321.232c26.416 0 47.906-21.491 47.906-47.907v-59.23c0-4.142-3.358-7.5-7.5-7.5s-7.5 3.358-7.5 7.5v59.23c0 18.145-14.762 32.907-32.906 32.907h-273.325v-482h273.325c18.145 0 32.906 14.762 32.906 32.907v321.95c0 4.142 3.358 7.5 7.5 7.5s7.5-3.358 7.5-7.5v-321.95c0-26.416-21.491-47.907-47.906-47.907z"/><path d="m341.283 191.35v-121.22c0-4.142-3.358-7.5-7.5-7.5h-202.033c-4.142 0-7.5 3.358-7.5 7.5v121.22c0 4.142 3.358 7.5 7.5 7.5h202.033c4.142 0 7.5-3.358 7.5-7.5zm-15-7.5h-187.033v-106.22h187.033z"/><path d="m483.287 0h-40.407c-4.142 0-7.5 3.358-7.5 7.5v442.286c0 10.519 2.486 21.051 7.191 30.459l13.805 27.609c1.271 2.541 3.867 4.146 6.708 4.146s5.438-1.605 6.708-4.146l13.804-27.609c4.705-9.408 7.191-19.941 7.191-30.459v-288.215c0-4.142-3.358-7.5-7.5-7.5s-7.5 3.358-7.5 7.5v288.214c0 8.202-1.939 16.415-5.607 23.751l-7.096 14.192-7.097-14.192c-3.668-7.336-5.607-15.55-5.607-23.751v-372.155h25.407v48.914c0 4.142 3.358 7.5 7.5 7.5s7.5-3.358 7.5-7.5v-119.044c0-4.142-3.358-7.5-7.5-7.5zm-32.907 62.63v-47.63h25.407v47.63z"/></g></g></svg>