<svg xmlns="http://www.w3.org/2000/svg" width="42.237" height="45.824" viewBox="0 0 42.237 45.824">
  <g id="Komponente_13_1" data-name="Komponente 13 – 1" transform="translate(0.5 0.5)">
    <g id="diary">
      <path id="Pfad_38" data-name="Pfad 38" d="M157.276,101.408h12.838a.7.7,0,1,0,0-1.4H157.276a.7.7,0,1,0,0,1.4Z" transform="translate(-145.054 -91.269)" fill="#165b6e" stroke="#165b6e" stroke-width="1"/>
      <path id="Pfad_39" data-name="Pfad 39" d="M157.276,147.876h12.838a.7.7,0,1,0,0-1.4H157.276a.7.7,0,1,0,0,1.4Z" transform="translate(-145.054 -133.677)" fill="#165b6e" stroke="#165b6e" stroke-width="1"/>
      <path id="Pfad_40" data-name="Pfad 40" d="M184.9,402.045h-9.439a.7.7,0,1,0,0,1.4H184.9a.7.7,0,1,0,0-1.4Z" transform="translate(-161.557 -366.919)" fill="#165b6e" stroke="#165b6e" stroke-width="1"/>
      <path id="Pfad_41" data-name="Pfad 41" d="M184.9,434.37h-9.439a.7.7,0,1,0,0,1.4H184.9a.7.7,0,1,0,0-1.4Z" transform="translate(-161.557 -396.8)" fill="#165b6e" stroke="#165b6e" stroke-width="1"/>
      <path id="Pfad_42" data-name="Pfad 42" d="M50.56,0H22.738a1.535,1.535,0,0,0-1.525,1.541V12.007a.65.65,0,1,0,1.3,0V1.541a.227.227,0,0,1,.225-.228h2.85v42.2h-2.85a.227.227,0,0,1-.225-.228V15.073a.65.65,0,1,0-1.3,0V43.283a1.535,1.535,0,0,0,1.525,1.541H50.56A4.177,4.177,0,0,0,54.71,40.63V35.445a.65.65,0,1,0-1.3,0V40.63a2.869,2.869,0,0,1-2.85,2.881H26.887V1.313H50.56a2.869,2.869,0,0,1,2.85,2.881V32.38a.65.65,0,1,0,1.3,0V4.194A4.177,4.177,0,0,0,50.56,0Z" transform="translate(-21.213)" fill="#165b6e" stroke="#165b6e" stroke-width="1"/>
      <path id="Pfad_43" data-name="Pfad 43" d="M144.53,74.658V63.331a.7.7,0,0,0-.7-.7H124.951a.7.7,0,0,0-.7.7V74.658a.7.7,0,0,0,.7.7H143.83A.7.7,0,0,0,144.53,74.658Zm-1.4-.7H125.652V64.032h17.477Z" transform="translate(-115.7 -56.778)" fill="#165b6e" stroke="#165b6e" stroke-width="1"/>
      <path id="Pfad_44" data-name="Pfad 44" d="M439.857,0h-3.776a.68.68,0,0,0-.7.657V39.377a5.685,5.685,0,0,0,.672,2.667l1.29,2.417a.723.723,0,0,0,1.254,0l1.29-2.417a5.685,5.685,0,0,0,.672-2.667V14.145a.7.7,0,0,0-1.4,0V39.377a4.434,4.434,0,0,1-.524,2.079l-.663,1.242-.663-1.242a4.435,4.435,0,0,1-.524-2.079V6.8h2.374v4.282a.7.7,0,0,0,1.4,0V.657a.68.68,0,0,0-.7-.657Zm-3.075,5.483V1.313h2.374v4.17Z" transform="translate(-399.32)" fill="#165b6e" stroke="#165b6e" stroke-width="1"/>
    </g>
  </g>
</svg>
