<svg xmlns="http://www.w3.org/2000/svg" width="52.047" height="52.047" viewBox="0 0 52.047 52.047">
  <g id="Gruppe_82" data-name="Gruppe 82" transform="translate(0)">
    <g id="arrow" transform="translate(0)">
      <path id="Pfad_80" data-name="Pfad 80" d="M26.024,52.047A26.024,26.024,0,0,1,7.622,7.622a26.024,26.024,0,0,1,36.8,36.8,25.854,25.854,0,0,1-18.4,7.622Zm0-47.981A21.957,21.957,0,1,0,47.981,26.024,21.982,21.982,0,0,0,26.024,4.066Z" transform="translate(0 0)" fill="#f3cf78"/>
      <path id="Pfad_81" data-name="Pfad 81" d="M138.672,167.177a2.033,2.033,0,0,1-1.426-3.483l6.834-6.72a2.01,2.01,0,0,0,0-2.84l-6.83-6.644a2.033,2.033,0,1,1,2.835-2.915l6.84,6.654.018.017a6.077,6.077,0,0,1,0,8.61l-.01.01-6.84,6.726a2.026,2.026,0,0,1-1.425.583Zm0-9.759H124.033a2.033,2.033,0,0,1,0-4.066h14.638a2.033,2.033,0,1,1,0,4.066Z" transform="translate(-109.598 -129.361)" fill="#f3cf78"/>
    </g>
  </g>
</svg>
