<svg id="happy" xmlns="http://www.w3.org/2000/svg" width="44.75" height="44.75" viewBox="0 0 44.75 44.75">
  <g id="Gruppe_100" data-name="Gruppe 100">
    <g id="Gruppe_99" data-name="Gruppe 99">
      <path id="Pfad_104" data-name="Pfad 104" d="M226.918,112a2.918,2.918,0,1,0,2.919,2.919A2.922,2.922,0,0,0,226.918,112Zm0,3.891a.973.973,0,1,1,.973-.973A.974.974,0,0,1,226.918,115.891Z" transform="translate(-196.761 -98.38)" fill="#f3cf78"/>
      <path id="Pfad_105" data-name="Pfad 105" d="M98.918,117.837A2.918,2.918,0,1,0,96,114.919,2.922,2.922,0,0,0,98.918,117.837Zm0-3.891a.973.973,0,1,1-.973.973A.974.974,0,0,1,98.918,113.946Z" transform="translate(-84.326 -98.38)" fill="#f3cf78"/>
      <path id="Pfad_106" data-name="Pfad 106" d="M22.375,0A22.375,22.375,0,1,0,44.75,22.375,22.4,22.4,0,0,0,22.375,0Zm0,42.8A20.429,20.429,0,1,1,42.8,22.375,20.453,20.453,0,0,1,22.375,42.8Z" fill="#f3cf78"/>
      <path id="Pfad_107" data-name="Pfad 107" d="M116.429,208H96.973a.973.973,0,0,0-.973.973,10.7,10.7,0,0,0,21.4,0A.973.973,0,0,0,116.429,208Zm-9.728,9.728a8.767,8.767,0,0,1-8.7-7.783h17.4A8.767,8.767,0,0,1,106.7,217.728Z" transform="translate(-84.326 -182.706)" fill="#f3cf78"/>
    </g>
  </g>
</svg>
