<svg id="Capa_1" enable-background="new 0 0 511.125 511.125" height="512" fill="#165b6e" viewBox="0 0 511.125 511.125" width="512" xmlns="http://www.w3.org/2000/svg"><g><path d="m499.215 428.225h-12.525v-220.281c0-4.142-3.357-7.5-7.5-7.5s-7.5 3.358-7.5 7.5v220.281h-62.58c-4.143 0-7.5 3.358-7.5 7.5s3.357 7.5 7.5 7.5h87.015v3.168c0 10.722-8.724 19.445-19.445 19.445h-442.235c-10.722 0-19.445-8.723-19.445-19.445v-3.168h362.148c4.143 0 7.5-3.358 7.5-7.5s-3.357-7.5-7.5-7.5h-337.712v-296.265c0-5.456 4.438-9.895 9.895-9.895h245.738c4.143 0 7.5-3.358 7.5-7.5s-3.357-7.5-7.5-7.5h-245.739c-13.727 0-24.895 11.168-24.895 24.895v296.265h-12.525c-6.567 0-11.91 5.343-11.91 11.91v6.258c0 18.993 15.452 34.445 34.445 34.445h442.235c18.993 0 34.445-15.452 34.445-34.445v-6.258c0-6.567-5.343-11.91-11.91-11.91z"/><path d="m295.068 152.065c4.143 0 7.5-3.358 7.5-7.5s-3.357-7.5-7.5-7.5h-233.133c-4.143 0-7.5 3.358-7.5 7.5v261.16c0 4.142 3.357 7.5 7.5 7.5h64.967c4.143 0 7.5-3.358 7.5-7.5s-3.357-7.5-7.5-7.5h-57.467v-246.16z"/><path d="m305.575 274.408v-49.582c0-13.61-11.072-24.683-24.683-24.683h-47.046l-13.825-4.543c-3.303-1.084-6.951-.515-9.766 1.522-2.813 2.038-4.493 5.328-4.493 8.802v68.483c0 18.07 9.653 33.926 24.073 42.686v8.276l-32.938 27.353c-7.116 5.91-11.197 14.604-11.197 23.855v21.646h-26.838c-4.143 0-7.5 3.358-7.5 7.5s3.357 7.5 7.5 7.5h290.328c4.143 0 7.5-3.358 7.5-7.5v-197.062c0-4.142-3.357-7.5-7.5-7.5s-7.5 3.358-7.5 7.5v189.563h-116.266v-21.646c0-9.25-4.081-17.945-11.197-23.855l-32.938-27.353v-8.154c14.536-8.732 24.286-24.651 24.286-42.808zm-75.269-59.64c.755.249 1.546.375 2.341.375h48.246c5.339 0 9.683 4.344 9.683 9.683v15.093h-69.813v-28.286zm-9.543 40.151h69.813v19.489c0 19.248-15.659 34.906-34.906 34.906s-34.906-15.659-34.906-34.906v-19.489zm89.661 121.659v21.646h-109.723v-21.646c0-4.776 2.107-9.265 5.781-12.315l28.174-23.397c4.673 6.509 12.3 10.76 20.906 10.76s16.233-4.252 20.906-10.76l28.174 23.397c3.674 3.051 5.782 7.539 5.782 12.315zm-44.135-50.678c0 5.915-4.812 10.726-10.727 10.726s-10.727-4.812-10.727-10.726v-2.784c3.49.776 7.112 1.198 10.833 1.198 3.645 0 7.196-.403 10.62-1.149v2.735z"/><path d="m469.623 30.287h-110.554c-22.884 0-41.501 18.618-41.501 41.502v121.339c0 5.454 3.305 10.2 8.419 12.093 1.49.552 3.021.819 4.531.819 3.672 0 7.217-1.583 9.732-4.517l13.179-15.363h44.936c4.143 0 7.5-3.358 7.5-7.5s-3.357-7.5-7.5-7.5h-48.383c-2.188 0-4.268.956-5.692 2.617l-11.722 13.664v-115.652c0-14.613 11.889-26.502 26.501-26.502h110.554c14.613 0 26.502 11.889 26.502 26.502v72.87c0 14.613-11.889 26.502-26.502 26.502h-39.295c-4.143 0-7.5 3.358-7.5 7.5s3.357 7.5 7.5 7.5h39.295c22.884 0 41.502-18.618 41.502-41.502v-72.87c0-22.884-18.618-41.502-41.502-41.502z"/></g></svg>