<svg id="Capa_1" enable-background="new 0 0 512 512" height="512" viewBox="0 0 512 512" width="512" fill="#165b6e" xmlns="http://www.w3.org/2000/svg"><g><path d="m479.102 32.898c-43.864-43.864-115.235-43.864-159.099 0l-79.906 79.906c-25.378 25.378-36.707 60.71-31.839 95.208-34.498-4.869-69.83 6.46-95.208 31.839l-80.152 80.152c-43.864 43.864-43.864 115.235 0 159.099s115.235 43.864 159.099 0l80.152-80.152c25.407-25.407 36.728-60.706 31.851-95.195 34.49 4.876 69.789-6.444 95.195-31.851l79.906-79.906c43.865-43.865 43.865-115.236.001-159.1zm-228.166 344.839-80.152 80.152c-32.167 32.167-84.506 32.167-116.673 0s-32.167-84.506 0-116.673l80.152-80.152c17.72-17.72 42.065-26.102 66.204-23.777l-125.136 125.135c-20.47 20.47-20.47 53.777 0 74.247s53.776 20.47 74.246 0l125.146-125.146c2.337 24.136-6.042 48.469-23.787 66.214zm-106.305-10.368c5.691 5.691 12.376 9.794 19.499 12.321l-35.766 35.766c-8.773 8.773-23.047 8.773-31.82 0s-8.773-23.047 0-31.82l35.765-35.765c2.528 7.123 6.631 13.807 12.322 19.498zm53.033-21.213c-8.773 8.773-23.047 8.773-31.82 0s-8.773-23.046-.001-31.819l148.494-148.494c8.773-8.772 23.047-8.772 31.819.001 8.773 8.773 8.773 23.047 0 31.82zm150.206-213.846 35.766-35.766c8.773-8.773 23.047-8.773 31.82 0s8.773 23.047 0 31.82l-35.766 35.766c-2.527-7.124-6.63-13.808-12.321-19.499s-12.375-9.794-19.499-12.321zm110.019 38.474-79.906 79.906c-17.745 17.745-42.077 26.124-66.214 23.788l124.9-124.9c20.47-20.47 20.47-53.777 0-74.247s-53.776-20.47-74.246 0l-124.89 124.89c-2.324-24.139 6.057-48.483 23.777-66.203l79.906-79.906c32.167-32.167 84.506-32.167 116.673 0 32.167 32.166 32.167 84.505 0 116.672z"/></g></svg>