<svg xmlns="http://www.w3.org/2000/svg" width="48.463" height="45.307" viewBox="0 0 48.463 45.307">
  <g id="Gruppe_40" data-name="Gruppe 40" transform="translate(330 -520)">
    <g id="drugs" transform="translate(-330 520)">
      <path id="Pfad_45" data-name="Pfad 45" d="M301.6,254.969a4.45,4.45,0,1,0-8-3.9l-4.015,8.225a4.45,4.45,0,1,0,8,3.9Zm-6.933-3.384a3.265,3.265,0,0,1,5.869,2.865l-1.747,3.58-5.869-2.865Zm1.854,11.089a3.265,3.265,0,0,1-5.869-2.865l1.748-3.58,5.869,2.865Z" transform="translate(-261.635 -226.647)" fill="#165b6e"/>
      <path id="Pfad_46" data-name="Pfad 46" d="M342.017,267.411a3.3,3.3,0,0,0-1.9,1.683l-.736,1.508a.592.592,0,1,0,1.064.52l.736-1.508a2.122,2.122,0,0,1,1.225-1.083.592.592,0,1,0-.385-1.12Z" transform="translate(-306.86 -243.602)" fill="#165b6e"/>
      <path id="Pfad_47" data-name="Pfad 47" d="M381.049,306.3a4.45,4.45,0,0,0-5.951,2.047l-4.015,8.224a4.45,4.45,0,0,0,8,3.9l4.015-8.225A4.45,4.45,0,0,0,381.049,306.3Zm-3.033,13.656a3.265,3.265,0,1,1-5.869-2.865l1.747-3.58,5.869,2.865Zm4.015-8.225-1.747,3.58-5.869-2.865,1.747-3.58a3.265,3.265,0,0,1,5.869,2.865Z" transform="translate(-335.084 -278.277)" fill="#165b6e"/>
      <path id="Pfad_48" data-name="Pfad 48" d="M423.451,324.691a3.3,3.3,0,0,0-1.9,1.684l-.736,1.508a.592.592,0,1,0,1.064.52l.736-1.508a2.121,2.121,0,0,1,1.225-1.083.592.592,0,1,0-.385-1.12Z" transform="translate(-380.25 -295.228)" fill="#165b6e"/>
      <path id="Pfad_49" data-name="Pfad 49" d="M31.683,37.163a2.452,2.452,0,0,0,2.181-2.434V28.958a2.451,2.451,0,0,0-2.449-2.449H14.565a2.451,2.451,0,0,0-2.448,2.449V34.73a2.451,2.451,0,0,0,2.448,2.449h.348a11.154,11.154,0,0,0-1.5,1.124,7.811,7.811,0,0,0-2.892,5.355V68.528a3.507,3.507,0,0,0,3.188,3.287H32.673a2.571,2.571,0,0,0,2.043-1.109,3.684,3.684,0,0,0,.745-2.178V43.673A8.654,8.654,0,0,0,31.683,37.163Zm-1.113-9.47h.845a1.265,1.265,0,0,1,1.264,1.264V34.73a1.265,1.265,0,0,1-1.264,1.264H30.57Zm-3.494,0h2.309v8.3H27.076Zm-3.593,0h2.409v8.3H23.483Zm-3.394,0H22.3v8.3h-2.21Zm-3.593,0H18.9v8.3H16.5Zm-1.931,8.3A1.265,1.265,0,0,1,13.3,34.73V28.958a1.265,1.265,0,0,1,1.263-1.264h.746v8.3Zm19.711,26.63H17.825V47.437H34.277Zm0-16.37H17.233a.592.592,0,0,0-.592.592v16.37a.592.592,0,0,0,.592.592H34.277v4.72c0,.952-.715,2.1-1.6,2.1H13.707a2.365,2.365,0,0,1-2-2.1V43.681a6.656,6.656,0,0,1,2.5-4.494,7.253,7.253,0,0,1,4.11-2.009H28.59c2.089,0,5.687,3.209,5.687,6.5Z" transform="translate(-10.52 -26.509)" fill="#165b6e"/>
      <path id="Pfad_50" data-name="Pfad 50" d="M111.054,266.761h3v3a.793.793,0,0,0,.792.792h2.5a.793.793,0,0,0,.792-.792v-3h3a.793.793,0,0,0,.792-.792v-2.5a.793.793,0,0,0-.792-.792h-3v-3a.793.793,0,0,0-.792-.792h-2.5a.793.793,0,0,0-.792.792v3h-3a.793.793,0,0,0-.792.792v2.5A.793.793,0,0,0,111.054,266.761Zm.393-2.895h3a.793.793,0,0,0,.792-.792v-3h1.71v3a.793.793,0,0,0,.792.792h3v1.71h-3a.793.793,0,0,0-.792.792v3h-1.71v-3a.793.793,0,0,0-.792-.792h-3Z" transform="translate(-100.417 -235.951)" fill="#165b6e"/>
      <path id="Pfad_51" data-name="Pfad 51" d="M41.2,250.063a.592.592,0,0,0-.592.592V264.9a.592.592,0,1,0,1.185,0V250.655A.592.592,0,0,0,41.2,250.063Z" transform="translate(-37.635 -227.996)" fill="#165b6e"/>
      <path id="Pfad_52" data-name="Pfad 52" d="M40.592,227.571a.592.592,0,0,0,.592-.592v-.423a.592.592,0,1,0-1.185,0v.423A.592.592,0,0,0,40.592,227.571Z" transform="translate(-37.09 -206.275)" fill="#165b6e"/>
    </g>
  </g>
</svg>
