<svg id="meh" xmlns="http://www.w3.org/2000/svg" width="45.155" height="45.155" viewBox="0 0 45.155 45.155">
  <g id="Gruppe_108" data-name="Gruppe 108">
    <g id="Gruppe_107" data-name="Gruppe 107">
      <path id="Pfad_122" data-name="Pfad 122" d="M22.577,0A22.577,22.577,0,1,0,45.155,22.577,22.6,22.6,0,0,0,22.577,0Zm0,43.192A20.614,20.614,0,1,1,43.192,22.577,20.637,20.637,0,0,1,22.577,43.192Z" fill="#f3cf78"/>
      <path id="Pfad_123" data-name="Pfad 123" d="M98.945,133.89A2.945,2.945,0,1,0,96,130.945,2.948,2.948,0,0,0,98.945,133.89Zm0-3.926a.982.982,0,1,1-.982.982A.983.983,0,0,1,98.945,129.963Z" transform="translate(-84.22 -112.294)" fill="#f3cf78"/>
      <path id="Pfad_124" data-name="Pfad 124" d="M226.945,128a2.945,2.945,0,1,0,2.945,2.945A2.948,2.948,0,0,0,226.945,128Zm0,3.926a.982.982,0,1,1,.982-.982A.983.983,0,0,1,226.945,131.926Z" transform="translate(-196.514 -112.294)" fill="#f3cf78"/>
      <path id="Pfad_125" data-name="Pfad 125" d="M116.614,224H96.982a.982.982,0,0,0,0,1.963h19.633a.982.982,0,0,0,0-1.963Z" transform="translate(-84.22 -196.514)" fill="#f3cf78"/>
    </g>
  </g>
</svg>
