<?xml version="1.0" encoding="iso-8859-1"?>
<!-- Generator: Adobe Illustrator 19.0.0, SVG Export Plug-In . SVG Version: 6.00 Build 0)  -->
<svg version="1.1" id="Capa_1" xmlns="http://www.w3.org/2000/svg" xmlns:xlink="http://www.w3.org/1999/xlink" x="0px" y="0px"
	 viewBox="0 0 512 512" style="enable-background:new 0 0 512 512;" xml:space="preserve" fill="#165b6e">
<g>
	<g>
		<path d="M438,0H74C33.196,0,0,33.196,0,74s33.196,74,74,74h364c40.804,0,74-33.196,74-74S478.804,0,438,0z M438,108H74
			c-18.748,0-34-15.252-34-34s15.252-34,34-34h364c18.748,0,34,15.252,34,34S456.748,108,438,108z"/>
	</g>
</g>
<g>
	<g>
		<path d="M438,182H74c-40.804,0-74,33.196-74,74s33.196,74,74,74h364c40.804,0,74-33.196,74-74S478.804,182,438,182z M438,290H74
			c-18.748,0-34-15.252-34-34s15.252-34,34-34h364c18.748,0,34,15.252,34,34S456.748,290,438,290z"/>
	</g>
</g>
<g>
	<g>
		<path d="M438,364H74c-40.804,0-74,33.196-74,74s33.196,74,74,74h264c11.046,0,20-8.954,20-20c0-11.046-8.954-20-20-20H74
			c-18.748,0-34-15.252-34-34s15.252-34,34-34h364c18.748,0,34,15.252,34,34s-15.252,34-34,34c-11.046,0-20,8.954-20,20
			c0,11.046,8.954,20,20,20c40.804,0,74-33.196,74-74S478.804,364,438,364z"/>
	</g>
</g>
<g>
</g>
<g>
</g>
<g>
</g>
<g>
</g>
<g>
</g>
<g>
</g>
<g>
</g>
<g>
</g>
<g>
</g>
<g>
</g>
<g>
</g>
<g>
</g>
<g>
</g>
<g>
</g>
<g>
</g>
</svg>
