<svg xmlns="http://www.w3.org/2000/svg" width="35.26" height="45.248" viewBox="0 0 35.26 45.248">
  <g id="Gruppe_39" data-name="Gruppe 39" transform="translate(238 -568)">
    <g id="question" transform="translate(-238 568)">
      <path id="Pfad_22" data-name="Pfad 22" d="M45.37,52.348H69.187a1.88,1.88,0,0,0,1.878-1.878V43.378A1.88,1.88,0,0,0,69.187,41.5H45.37a1.88,1.88,0,0,0-1.878,1.878V50.47A1.88,1.88,0,0,0,45.37,52.348Zm-.552-8.97a.553.553,0,0,1,.552-.552H69.187a.553.553,0,0,1,.552.552V50.47a.553.553,0,0,1-.552.552H45.37a.553.553,0,0,1-.552-.552Zm0,0" transform="translate(-39.649 -37.832)" fill="#165b6e"/>
      <path id="Pfad_23" data-name="Pfad 23" d="M281.038,124.018a.611.611,0,1,0-.611.62A.615.615,0,0,0,281.038,124.018Zm0,0" transform="translate(-255.088 -112.493)" fill="#165b6e"/>
      <path id="Pfad_24" data-name="Pfad 24" d="M270.4,69.55c.668-.421,1.882-.223,1.882.558,0,.483-.327.7-1.11.79-.368.042-.557.23-.543.583l.029.743a.507.507,0,0,0,1.012.021l.027-.42a1.714,1.714,0,0,0,1.633-1.716c0-2.306-3.683-2.018-3.683-.976A.493.493,0,0,0,270.4,69.55Zm0,0" transform="translate(-245.815 -62.311)" fill="#165b6e"/>
      <path id="Pfad_25" data-name="Pfad 25" d="M80.819,78.615H93.854a.663.663,0,0,0,0-1.326H80.819a.663.663,0,0,0,0,1.326Zm0,0" transform="translate(-73.073 -70.459)" fill="#165b6e"/>
      <path id="Pfad_26" data-name="Pfad 26" d="M80.819,114.787H93.854a.663.663,0,1,0,0-1.326H80.819a.663.663,0,0,0,0,1.326Zm0,0" transform="translate(-73.073 -103.434)" fill="#165b6e"/>
      <path id="Pfad_27" data-name="Pfad 27" d="M43.492,203.6a1.88,1.88,0,0,0,1.878,1.878H69.187a1.88,1.88,0,0,0,1.878-1.878V196.5a1.88,1.88,0,0,0-1.878-1.878H45.37a1.88,1.88,0,0,0-1.878,1.878Zm1.326-7.092a.553.553,0,0,1,.552-.552H69.187a.553.553,0,0,1,.552.552V203.6a.553.553,0,0,1-.552.552H45.37a.553.553,0,0,1-.552-.552Zm0,0" transform="translate(-39.649 -177.425)" fill="#165b6e"/>
      <path id="Pfad_28" data-name="Pfad 28" d="M281.038,277.143a.611.611,0,1,0-.611.62A.615.615,0,0,0,281.038,277.143Zm0,0" transform="translate(-255.088 -252.086)" fill="#165b6e"/>
      <path id="Pfad_29" data-name="Pfad 29" d="M270.4,222.672c.668-.421,1.882-.223,1.882.558,0,.483-.327.7-1.11.789-.368.042-.557.229-.543.583l.029.743a.507.507,0,0,0,1.012.021l.027-.42a1.714,1.714,0,0,0,1.633-1.717c0-2.306-3.683-2.018-3.683-.976A.493.493,0,0,0,270.4,222.672Zm0,0" transform="translate(-245.815 -201.9)" fill="#165b6e"/>
      <path id="Pfad_30" data-name="Pfad 30" d="M80.819,231.74H93.854a.663.663,0,1,0,0-1.326H80.819a.663.663,0,0,0,0,1.326Zm0,0" transform="translate(-73.073 -210.051)" fill="#165b6e"/>
      <path id="Pfad_31" data-name="Pfad 31" d="M80.819,267.912H93.854a.663.663,0,0,0,0-1.326H80.819a.663.663,0,0,0,0,1.326Zm0,0" transform="translate(-73.073 -243.026)" fill="#165b6e"/>
      <path id="Pfad_32" data-name="Pfad 32" d="M273.335,376.315c0-1.742-2.228-2.159-3.451-1.394a.494.494,0,0,0,.261.912.488.488,0,0,0,.261-.075c.668-.421,1.882-.223,1.882.558,0,.483-.327.7-1.11.789-.368.043-.558.23-.543.583l.029.743a.507.507,0,0,0,1.012.021l.027-.42A1.713,1.713,0,0,0,273.335,376.315Zm0,0" transform="translate(-245.822 -341.453)" fill="#165b6e"/>
      <path id="Pfad_33" data-name="Pfad 33" d="M281.038,430.268a.611.611,0,1,0-.611.62A.615.615,0,0,0,281.038,430.268Zm0,0" transform="translate(-255.088 -391.678)" fill="#165b6e"/>
      <path id="Pfad_34" data-name="Pfad 34" d="M93.854,383.539H80.819a.663.663,0,0,0,0,1.326H93.854a.663.663,0,1,0,0-1.326Zm0,0" transform="translate(-73.073 -349.644)" fill="#165b6e"/>
      <path id="Pfad_35" data-name="Pfad 35" d="M93.854,419.711H80.819a.663.663,0,0,0,0,1.326H93.854a.663.663,0,0,0,0-1.326Zm0,0" transform="translate(-73.073 -382.619)" fill="#165b6e"/>
      <path id="Pfad_36" data-name="Pfad 36" d="M43.492,356.716a1.88,1.88,0,0,0,1.878,1.878H69.187a1.88,1.88,0,0,0,1.878-1.878V354.6a.663.663,0,0,0-1.326,0v2.12a.553.553,0,0,1-.552.552H45.37a.553.553,0,0,1-.552-.552v-7.092a.553.553,0,0,1,.552-.552H69.187a.553.553,0,0,1,.552.552v2.5a.663.663,0,1,0,1.326,0v-2.5a1.88,1.88,0,0,0-1.878-1.878H45.37a1.88,1.88,0,0,0-1.878,1.878Zm0,0" transform="translate(-39.649 -317.014)" fill="#165b6e"/>
      <path id="Pfad_37" data-name="Pfad 37" d="M32.272,0H2.988A2.992,2.992,0,0,0,0,2.988V4.766a.663.663,0,0,0,1.326,0V2.988A1.664,1.664,0,0,1,2.988,1.326H32.272a1.664,1.664,0,0,1,1.663,1.663V42.26a1.664,1.664,0,0,1-1.663,1.663H2.988A1.664,1.664,0,0,1,1.326,42.26V7.24A.663.663,0,1,0,0,7.24V42.26a2.992,2.992,0,0,0,2.988,2.988H32.272A2.992,2.992,0,0,0,35.26,42.26V2.988A2.992,2.992,0,0,0,32.272,0Zm0,0" fill="#165b6e"/>
    </g>
  </g>
</svg>
