<svg height="512pt" viewBox="-57 0 512 512" width="512pt" fill="#165b6e" xmlns="http://www.w3.org/2000/svg"><path d="m64.742188 164.253906h269.5c11.714843 0 21.25-9.535156 21.25-21.25v-80.253906c0-11.71875-9.535157-21.25-21.25-21.25h-269.5c-11.71875 0-21.25 9.53125-21.25 21.25v80.253906c0 11.714844 9.53125 21.25 21.25 21.25zm-6.25-101.503906c0-3.445312 2.804687-6.25 6.25-6.25h269.5c3.445312 0 6.25 2.804688 6.25 6.25v80.253906c0 3.445313-2.804688 6.25-6.25 6.25h-269.5c-3.445313 0-6.25-2.804687-6.25-6.25zm0 0"/><path d="m293.644531 130.414062c0-3.875-3.09375-7.015624-6.914062-7.015624-3.820313 0-6.914063 3.140624-6.914063 7.015624 0 3.871094 3.09375 7.011719 6.914063 7.011719 3.820312 0 6.914062-3.140625 6.914062-7.011719zm0 0"/><path d="m278.175781 81.917969c7.5625-4.761719 21.296875-2.523438 21.296875 6.3125 0 5.460937-3.703125 7.910156-12.558594 8.933593-4.160156.480469-6.308593 2.597657-6.148437 6.597657l.332031 8.402343c.125 3.0625 2.640625 5.507813 5.730469 5.507813 3.011719 0 5.527344-2.316406 5.714844-5.265625l.300781-4.753906c10.628906-1.71875 18.480469-8.070313 18.480469-19.421875 0-26.089844-41.679688-22.832031-41.679688-11.042969 0 4.417969 4.878907 7.03125 8.53125 4.730469zm0 0"/><path d="m87.65625 92.289062h147.5c4.144531 0 7.5-3.355468 7.5-7.5 0-4.140624-3.355469-7.5-7.5-7.5h-147.5c-4.144531 0-7.5 3.359376-7.5 7.5 0 4.144532 3.355469 7.5 7.5 7.5zm0 0"/><path d="m87.65625 128.460938h147.5c4.144531 0 7.5-3.355469 7.5-7.5 0-4.144532-3.355469-7.5-7.5-7.5h-147.5c-4.144531 0-7.5 3.355468-7.5 7.5 0 4.144531 3.355469 7.5 7.5 7.5zm0 0"/><path d="m43.492188 296.125c0 11.71875 9.53125 21.25 21.25 21.25h269.5c11.714843 0 21.25-9.53125 21.25-21.25v-80.25c0-11.71875-9.535157-21.25-21.25-21.25h-269.5c-11.71875 0-21.25 9.53125-21.25 21.25zm15-80.25c0-3.445312 2.804687-6.25 6.25-6.25h269.5c3.445312 0 6.25 2.804688 6.25 6.25v80.25c0 3.445312-2.804688 6.25-6.25 6.25h-269.5c-3.445313 0-6.25-2.804688-6.25-6.25zm0 0"/><path d="m293.644531 283.535156c0-3.871094-3.09375-7.011718-6.914062-7.011718-3.820313 0-6.914063 3.140624-6.914063 7.011718 0 3.875 3.09375 7.015625 6.914063 7.015625 3.820312 0 6.914062-3.140625 6.914062-7.015625zm0 0"/><path d="m278.175781 235.042969c7.5625-4.761719 21.296875-2.523438 21.296875 6.3125 0 5.460937-3.703125 7.910156-12.558594 8.933593-4.160156.480469-6.308593 2.59375-6.148437 6.597657l.332031 8.402343c.125 3.0625 2.640625 5.503907 5.730469 5.503907 3.011719 0 5.527344-2.3125 5.714844-5.265625l.300781-4.75c10.628906-1.71875 18.480469-8.074219 18.480469-19.425782 0-26.089843-41.679688-22.832031-41.679688-11.042968 0 4.417968 4.878907 7.035156 8.53125 4.734375zm0 0"/><path d="m87.65625 245.414062h147.5c4.144531 0 7.5-3.355468 7.5-7.5 0-4.140624-3.355469-7.5-7.5-7.5h-147.5c-4.144531 0-7.5 3.359376-7.5 7.5 0 4.144532 3.355469 7.5 7.5 7.5zm0 0"/><path d="m87.65625 281.585938h147.5c4.144531 0 7.5-3.359376 7.5-7.5 0-4.144532-3.355469-7.5-7.5-7.5h-147.5c-4.144531 0-7.5 3.355468-7.5 7.5 0 4.140624 3.355469 7.5 7.5 7.5zm0 0"/><path d="m311.324219 394.476562c0-19.714843-25.207031-24.425781-39.054688-15.777343-4.710937 2.941406-2.660156 10.316406 2.953125 10.316406 1.085938 0 2.097656-.308594 2.953125-.847656 7.5625-4.761719 21.296875-2.523438 21.296875 6.3125 0 5.460937-3.703125 7.910156-12.558594 8.929687-4.160156.480469-6.308593 2.597656-6.148437 6.601563l.332031 8.402343c.125 3.058594 2.640625 5.503907 5.730469 5.503907 3.011719 0 5.527344-2.3125 5.714844-5.265625l.300781-4.753906c10.632812-1.714844 18.480469-8.070313 18.480469-19.421876zm0 0"/><path d="m293.644531 436.660156c0-3.871094-3.09375-7.011718-6.914062-7.011718-3.820313 0-6.914063 3.140624-6.914063 7.011718 0 3.875 3.09375 7.015625 6.914063 7.015625 3.820312 0 6.914062-3.140625 6.914062-7.015625zm0 0"/><path d="m235.15625 383.539062h-147.5c-4.144531 0-7.5 3.355469-7.5 7.5 0 4.144532 3.355469 7.5 7.5 7.5h147.5c4.144531 0 7.5-3.355468 7.5-7.5 0-4.144531-3.355469-7.5-7.5-7.5zm0 0"/><path d="m235.15625 419.710938h-147.5c-4.144531 0-7.5 3.355468-7.5 7.5 0 4.140624 3.355469 7.5 7.5 7.5h147.5c4.144531 0 7.5-3.359376 7.5-7.5 0-4.144532-3.355469-7.5-7.5-7.5zm0 0"/><path d="m43.492188 449.25c0 11.71875 9.53125 21.25 21.25 21.25h269.5c11.714843 0 21.25-9.53125 21.25-21.25v-23.992188c0-4.144531-3.359376-7.5-7.5-7.5-4.144532 0-7.5 3.355469-7.5 7.5v23.992188c0 3.445312-2.804688 6.25-6.25 6.25h-269.5c-3.445313 0-6.25-2.804688-6.25-6.25v-80.253906c0-3.445313 2.804687-6.25 6.25-6.25h269.5c3.445312 0 6.25 2.804687 6.25 6.25v28.261718c0 4.144532 3.355468 7.5 7.5 7.5 4.140624 0 7.5-3.355468 7.5-7.5v-28.261718c0-11.714844-9.535157-21.25-21.25-21.25h-269.5c-11.71875 0-21.25 9.535156-21.25 21.25zm0 0"/><path d="m365.167969 0h-331.355469c-18.644531 0-33.8125 15.167969-33.8125 33.8125v20.113281c0 4.140625 3.359375 7.5 7.5 7.5 4.144531 0 7.5-3.359375 7.5-7.5v-20.113281c0-10.375 8.441406-18.8125 18.8125-18.8125h331.355469c10.371093 0 18.8125 8.4375 18.8125 18.8125v444.375c0 10.375-8.4375 18.8125-18.8125 18.8125h-331.355469c-10.371094 0-18.8125-8.4375-18.8125-18.8125v-396.261719c0-4.144531-3.355469-7.5-7.5-7.5s-7.5 3.355469-7.5 7.5v396.261719c0 18.644531 15.167969 33.8125 33.8125 33.8125h331.355469c18.644531 0 33.8125-15.167969 33.8125-33.8125v-444.375c0-18.644531-15.167969-33.8125-33.8125-33.8125zm0 0"/></svg>